<svg width="296" height="164" viewBox="0 0 296 164" fill="none" xmlns="http://www.w3.org/2000/svg">
<path d="M23.0455 129V35.9091H45.5455V110.727H84.2727V129H23.0455ZM113.042 130.182C108.588 130.182 104.633 129.439 101.179 127.955C97.7544 126.439 95.0423 124.167 93.0423 121.136C91.0726 118.076 90.0877 114.242 90.0877 109.636C90.0877 105.758 90.7695 102.485 92.1332 99.8182C93.4968 97.1515 95.3756 94.9848 97.7695 93.3182C100.163 91.6515 102.921 90.3939 106.042 89.5455C109.163 88.6667 112.497 88.0758 116.042 87.7727C120.012 87.4091 123.209 87.0303 125.633 86.6364C128.057 86.2121 129.815 85.6212 130.906 84.8636C132.027 84.0758 132.588 82.9697 132.588 81.5455V81.3182C132.588 78.9848 131.785 77.1818 130.179 75.9091C128.573 74.6364 126.406 74 123.679 74C120.739 74 118.376 74.6364 116.588 75.9091C114.8 77.1818 113.663 78.9394 113.179 81.1818L92.6786 80.4545C93.2847 76.2121 94.8453 72.4242 97.3605 69.0909C99.9059 65.7273 103.391 63.0909 107.815 61.1818C112.27 59.2424 117.618 58.2727 123.86 58.2727C128.315 58.2727 132.421 58.803 136.179 59.8636C139.936 60.8939 143.209 62.4091 145.997 64.4091C148.785 66.3788 150.936 68.803 152.451 71.6818C153.997 74.5606 154.77 77.8485 154.77 81.5455V129H133.86V119.273H133.315C132.073 121.636 130.482 123.636 128.542 125.273C126.633 126.909 124.376 128.136 121.77 128.955C119.194 129.773 116.285 130.182 113.042 130.182ZM119.906 115.636C122.3 115.636 124.451 115.152 126.36 114.182C128.3 113.212 129.845 111.879 130.997 110.182C132.148 108.455 132.724 106.455 132.724 104.182V97.5455C132.088 97.8788 131.315 98.1818 130.406 98.4545C129.527 98.7273 128.557 98.9848 127.497 99.2273C126.436 99.4697 125.345 99.6818 124.224 99.8636C123.103 100.045 122.027 100.212 120.997 100.364C118.906 100.697 117.118 101.212 115.633 101.909C114.179 102.606 113.057 103.515 112.27 104.636C111.512 105.727 111.133 107.03 111.133 108.545C111.133 110.848 111.951 112.606 113.588 113.818C115.254 115.03 117.36 115.636 119.906 115.636ZM165.8 59.1818H188.028V131.909C188.028 137.667 186.846 142.242 184.482 145.636C182.149 149.03 178.846 151.47 174.573 152.955C170.3 154.439 165.255 155.182 159.437 155.182C158.649 155.182 157.907 155.167 157.21 155.136C156.513 155.106 155.755 155.076 154.937 155.045V138.182C155.482 138.242 155.967 138.288 156.391 138.318C156.816 138.348 157.24 138.364 157.664 138.364C160.725 138.364 162.846 137.788 164.028 136.636C165.21 135.515 165.8 133.788 165.8 131.455V59.1818ZM176.891 51.0455C173.77 51.0455 171.088 50.0152 168.846 47.9545C166.603 45.8636 165.482 43.3485 165.482 40.4091C165.482 37.5 166.603 35.0151 168.846 32.9545C171.088 30.8636 173.77 29.8182 176.891 29.8182C180.043 29.8182 182.725 30.8636 184.937 32.9545C187.179 35.0151 188.3 37.5 188.3 40.4091C188.3 43.3485 187.179 45.8636 184.937 47.9545C182.725 50.0152 180.043 51.0455 176.891 51.0455ZM244.661 98.8636V59.1818H266.843V129H245.661V116H244.934C243.388 120.273 240.752 123.667 237.025 126.182C233.328 128.667 228.858 129.909 223.615 129.909C218.858 129.909 214.676 128.818 211.07 126.636C207.464 124.455 204.661 121.409 202.661 117.5C200.661 113.561 199.646 108.955 199.615 103.682V59.1818H221.843V99.3182C221.873 103.106 222.873 106.091 224.843 108.273C226.812 110.455 229.494 111.545 232.888 111.545C235.1 111.545 237.085 111.061 238.843 110.091C240.631 109.091 242.04 107.652 243.07 105.773C244.131 103.864 244.661 101.561 244.661 98.8636Z" fill="white"/>
<path d="M292.727 28.2177C292.727 23.5178 288.918 19.7072 284.218 19.7071C279.518 19.7071 275.707 23.5178 275.707 28.2177C275.707 32.9175 279.518 36.7272 284.218 36.7272V38.4353L283.691 38.4218C278.467 38.1568 274.278 33.9674 274.014 28.7429L274 28.2177C274 22.5747 278.575 18 284.218 18L284.743 18.0135C290.142 18.287 294.435 22.7509 294.435 28.2177L294.422 28.7429C294.148 34.1416 289.684 38.4352 284.218 38.4353V36.7272C288.917 36.7271 292.727 32.9174 292.727 28.2177Z" fill="#FDFAF5"/>
<path d="M287.302 24.9578L288.462 23.7751H286.445V24.9578H287.302ZM284.749 32.6589L285.877 31.5095H284.446V23.7751H281.072L279.985 24.8298L282.54 24.8777L283.193 24.8904V32.6589H284.749Z" fill="#124076" stroke="#FDFAF5" stroke-width="1.33333"/>
</svg>
