<svg width="680" height="680" viewBox="0 0 680 680" fill="none" xmlns="http://www.w3.org/2000/svg">
<path fill-rule="evenodd" clip-rule="evenodd" d="M291.125 160.222V489.107H249.623V201.724C249.623 178.803 268.206 160.222 291.125 160.222ZM221.502 355.202V460.846H180V381.805C180 367.112 191.91 355.202 206.601 355.202H221.502ZM473.396 355.202C488.089 355.202 500 367.112 500 381.805V460.846H458.498V355.202H473.396ZM388.872 160.222C411.794 160.222 430.374 178.803 430.374 201.724V489.107H388.872V160.222ZM340.056 71C351.486 71 360.751 80.2659 360.751 91.6943V489.107H319.249V91.6943C319.249 80.2659 328.514 71 339.944 71H340.056ZM339.999 608.188L319.256 501.649H360.741L339.999 608.188Z" fill="white"/>
</svg>
