<svg width="640" height="164" viewBox="0 0 640 164" fill="none" xmlns="http://www.w3.org/2000/svg">
<path d="M558.245 138.998C552.399 138.998 547.347 138.057 543.086 136.175C538.826 134.292 535.556 131.617 533.278 128.149C530.999 124.583 529.859 120.372 529.859 115.517C529.859 110.959 530.9 106.947 532.98 103.479C535.061 99.9123 538.231 96.94 542.492 94.5621C546.851 92.1843 552.251 90.4999 558.691 89.5092L583.51 85.4965V101.844L562.704 105.56C559.533 106.154 557.106 107.195 555.421 108.681C553.737 110.068 552.895 112.099 552.895 114.774C552.895 117.251 553.836 119.183 555.719 120.57C557.601 121.957 559.929 122.651 562.704 122.651C566.369 122.651 569.589 121.858 572.364 120.273C575.138 118.688 577.268 116.557 578.754 113.882C580.339 111.108 581.132 108.086 581.132 104.817V83.7131C581.132 80.6417 579.893 78.0657 577.417 75.9851C575.039 73.9045 571.769 72.8641 567.608 72.8641C563.645 72.8641 560.128 73.954 557.056 76.1337C554.084 78.3134 551.904 81.1867 550.517 84.7534L532.683 76.2823C534.268 71.7248 536.795 67.8112 540.263 64.5416C543.73 61.2721 547.891 58.7456 552.746 56.9622C557.601 55.1788 562.902 54.2871 568.648 54.2871C575.485 54.2871 581.528 55.5256 586.779 58.0025C592.03 60.4794 596.093 63.9472 598.966 68.4057C601.938 72.7651 603.424 77.8676 603.424 83.7131V137.215H582.618V124.137L587.671 123.245C585.293 126.812 582.668 129.784 579.794 132.162C576.921 134.441 573.701 136.125 570.134 137.215C566.568 138.404 562.604 138.998 558.245 138.998Z" fill="#F3F8F2"/>
<path d="M513.472 138.109C503.663 138.109 496.034 135.483 490.585 130.232C485.234 124.882 482.559 117.451 482.559 107.94V75.3926H468.887V56.0725H469.63C473.791 56.0725 476.962 55.0321 479.141 52.9515C481.42 50.8709 482.559 47.7499 482.559 43.5887V37.644H504.852V56.0725H523.875V75.3926H504.852V106.453C504.852 109.228 505.347 111.556 506.338 113.438C507.329 115.222 508.864 116.559 510.945 117.451C513.026 118.343 515.602 118.789 518.673 118.789C519.367 118.789 520.159 118.739 521.051 118.64C521.943 118.541 522.884 118.442 523.875 118.343V137.217C522.389 137.415 520.704 137.613 518.822 137.811C516.939 138.01 515.156 138.109 513.472 138.109Z" fill="#F3F8F2"/>
<path d="M441.492 137.217V56.0722H463.785V137.217H441.492ZM441.492 48.79V26.4976H463.785V48.79H441.492Z" fill="#F3F8F2"/>
<path d="M358.223 137.217V24.7144H380.515V96.7933L372.193 94.1181L408.009 56.0724H435.503L406.077 88.768L435.354 137.217H410.09L385.568 96.0502L398.498 92.7806L373.679 119.829L380.515 106.899V137.217H358.223Z" fill="#F3F8F2"/>
<path d="M306.957 139C300.418 139 294.82 137.613 290.163 134.839C285.606 131.966 282.138 128.003 279.76 122.95C277.382 117.897 276.193 112.002 276.193 105.264V56.0723H298.486V103.481C298.486 106.552 299.08 109.277 300.269 111.655C301.557 113.934 303.341 115.717 305.619 117.005C307.898 118.293 310.474 118.937 313.347 118.937C316.32 118.937 318.896 118.293 321.075 117.005C323.354 115.717 325.088 113.934 326.277 111.655C327.565 109.277 328.209 106.552 328.209 103.481V56.0723H350.501V137.217H329.695V121.166L330.884 124.733C329.002 129.588 325.93 133.204 321.67 135.582C317.509 137.861 312.604 139 306.957 139Z" fill="#F3F8F2"/>
<path d="M192.652 137.217V24.7144H214.945V96.7933L206.622 94.1181L242.439 56.0724H269.933L240.507 88.768L269.784 137.217H244.519L219.998 96.0502L232.927 92.7806L208.108 119.829L214.945 106.899V137.217H192.652Z" fill="#F3F8F2"/>
<path d="M142.793 138.998C134.767 138.998 127.436 137.165 120.797 133.5C114.258 129.834 109.007 124.83 105.044 118.489C101.18 112.049 99.248 104.767 99.248 96.6427C99.248 88.4193 101.18 81.1371 105.044 74.7962C109.007 68.4552 114.258 63.4518 120.797 59.7859C127.436 56.12 134.767 54.2871 142.793 54.2871C150.818 54.2871 158.1 56.12 164.639 59.7859C171.178 63.4518 176.38 68.4552 180.244 74.7962C184.207 81.1371 186.188 88.4193 186.188 96.6427C186.188 104.767 184.207 112.049 180.244 118.489C176.38 124.83 171.178 129.834 164.639 133.5C158.1 137.165 150.818 138.998 142.793 138.998ZM142.793 118.935C146.855 118.935 150.372 117.994 153.344 116.111C156.416 114.229 158.794 111.603 160.478 108.235C162.261 104.866 163.153 101.002 163.153 96.6427C163.153 92.2833 162.261 88.4688 160.478 85.1993C158.794 81.8307 156.416 79.2051 153.344 77.3226C150.372 75.3411 146.855 74.3503 142.793 74.3503C138.73 74.3503 135.164 75.3411 132.092 77.3226C129.021 79.2051 126.593 81.8307 124.81 85.1993C123.126 88.4688 122.284 92.2833 122.284 96.6427C122.284 101.002 123.126 104.866 124.81 108.235C126.593 111.603 129.021 114.229 132.092 116.111C135.164 117.994 138.73 118.935 142.793 118.935Z" fill="#F3F8F2"/>
<path d="M0 137.217V26.4976H36.1137C48.1021 26.4976 58.5052 28.8754 67.3231 33.6311C76.141 38.3869 82.9773 44.926 87.8321 53.2485C92.6869 61.571 95.1143 71.0824 95.1143 81.7828C95.1143 92.4832 92.6869 102.044 87.8321 110.466C82.9773 118.788 76.141 125.327 67.3231 130.083C58.5052 134.839 48.1021 137.217 36.1137 137.217H0ZM23.0355 117.153H36.7082C43.9408 117.153 50.1827 115.717 55.4338 112.844C60.6849 109.871 64.7471 105.76 67.6203 100.508C70.5927 95.1583 72.0788 88.9164 72.0788 81.7828C72.0788 74.5502 70.5927 68.3083 67.6203 63.0572C64.7471 57.8061 60.6849 53.7439 55.4338 50.8706C50.1827 47.9974 43.9408 46.5608 36.7082 46.5608H23.0355V117.153Z" fill="#F3F8F2"/>
<path d="M624.501 28.7311C624.501 24.2551 620.873 20.6259 616.397 20.6258C611.921 20.6258 608.292 24.255 608.292 28.7311C608.292 33.2071 611.921 36.8354 616.397 36.8354V38.4622L615.896 38.4493C610.92 38.1969 606.931 34.207 606.679 29.2313L606.666 28.7311C606.666 23.3569 611.023 19 616.397 19L616.897 19.0129C622.039 19.2734 626.128 23.5247 626.128 28.7311L626.115 29.2313C625.855 34.373 621.603 38.4621 616.397 38.4622V36.8354C620.873 36.8353 624.501 33.207 624.501 28.7311Z" fill="#FDFAF5"/>
<path d="M619.319 25.5952L620.363 24.5317H618.55V25.5952H619.319ZM616.889 32.9292L617.9 31.8979H616.582V24.5317H613.414L612.442 25.4741L614.799 25.519L615.453 25.5317V32.9292H616.889Z" fill="#124076" stroke="#FDFAF5" stroke-width="1.33333"/>
</svg>
