<svg width="600" height="164" viewBox="0 0 600 164" fill="none" xmlns="http://www.w3.org/2000/svg">
<path d="M530.156 122.771L501.617 59.097L494 59.6501V51.6857L525.078 50.8008L525.586 56.6081L515.43 59.097L537.976 110.534L530.156 122.771ZM571.594 50.8008L572 56.6081L564.383 59.097L536.758 118.622L523.656 146.207C521.219 151.254 518.68 154.815 516.039 156.889C513.466 158.963 510.453 160 507 160C504.427 160 502.294 159.378 500.602 158.133C498.977 156.958 498.164 155.299 498.164 153.155C498.164 151.496 498.773 149.941 499.992 148.489C501.211 147.106 503.174 145.965 505.883 145.067L520.711 140.607L513.5 148.904L531.375 113.541L533.203 110.637L554.633 59.097L544.578 56.6081L544.883 50.8008H571.594Z" fill="#FAF9F5"/>
<path d="M484.078 123.599H448.917L448.71 116.973L458.729 114.425C458.863 112.302 458.93 109.576 458.93 106.249C458.93 102.852 458.93 97.4013 458.93 89.8981L458.829 58.4694V38.8264C458.829 27.9962 461.134 19.502 465.743 13.3437C470.351 7.11456 476.463 4 484.078 4C488.286 4 491.859 4.991 494.798 6.97299C497.737 8.95498 499.207 11.4325 499.207 14.4055C499.207 15.9627 498.706 17.2015 497.704 18.1217C496.702 19.0419 495.5 19.502 494.097 19.502C491.425 19.502 488.92 18.2633 486.583 15.7858L479.369 8.45948L482.976 9.52126C478.901 9.52126 475.762 11.6802 473.558 15.9981C471.353 20.2452 470.251 26.2974 470.251 34.1546V50.1875L470.552 58.4694L470.752 88.5177C470.752 93.4019 470.786 98.2861 470.852 103.17C470.919 108.055 471.019 111.806 471.153 114.425L484.378 116.655L484.078 123.599ZM447.207 58.4694V53.0543L458.829 50.0813L470.953 50.1875H488.286V58.4694H447.207Z" fill="#FAF9F5"/>
<path d="M323.561 123.6L323.244 117.785L333.707 115.292C333.778 114.184 333.884 112.488 334.024 110.203C334.165 107.849 334.271 103.592 334.341 97.4298L334.553 84.3446C334.623 80.8137 334.482 77.1789 334.13 73.4402C333.848 69.7016 333.531 66.863 333.179 64.9245L322.398 62.5359V57.1357L344.488 51.1123L347.236 53.7086L346.285 62.7436L346.813 62.9513C350.336 58.5896 353.965 55.4741 357.699 53.6048C361.504 51.7354 365.379 50.8008 369.325 50.8008C373.2 50.8008 377.005 51.8739 380.74 54.0202C384.474 56.0972 387.574 59.3165 390.041 63.6783C392.577 67.9708 393.845 73.4749 393.845 80.1905L393.951 97.8452C393.951 101.93 394.022 105.565 394.162 108.75C394.374 111.934 394.62 114.115 394.902 115.292L405.154 117.785L404.732 123.6H372.179L371.756 117.785L381.163 115.292C381.303 114.046 381.409 112.246 381.48 109.892C381.621 107.469 381.691 103.869 381.691 99.0914V80.5021C381.691 73.371 379.965 68.2823 376.512 65.236C373.13 62.1205 369.325 60.5628 365.098 60.5628C361.504 60.5628 358.157 61.3936 355.057 63.0552C351.957 64.7168 349.209 67.3477 346.813 70.9478V96.1836C346.813 101.376 346.883 105.565 347.024 108.75C347.165 111.934 347.341 114.115 347.553 115.292L357.488 117.785L357.065 123.6H323.561ZM418.894 123.6L418.471 117.785L427.984 115.292C428.124 114.046 428.265 112.246 428.406 109.892C428.618 107.469 428.723 103.869 428.723 99.0914L428.829 80.7098C428.829 73.371 426.962 68.1785 423.227 65.1322C419.563 62.0859 415.794 60.5628 411.919 60.5628C403.886 60.5628 397.263 64.4745 392.049 72.2979L388.984 66.2745C392.929 60.8743 397.122 56.9626 401.561 54.5394C406 52.047 410.721 50.8008 415.723 50.8008C422.629 50.8008 428.547 53.2586 433.479 58.1742C438.482 63.0898 440.983 69.9786 440.983 78.8405L440.878 97.8452C440.878 101.93 440.948 105.565 441.089 108.75C441.301 111.934 441.547 114.115 441.829 115.292L452.398 117.785L452.271 123.469L418.894 123.6Z" fill="#FAF9F5"/>
<path d="M292.023 123.6L291.712 117.387L302.808 115.031C302.877 114.459 302.981 112.96 303.119 110.532C303.258 108.104 303.361 103.462 303.43 96.6067V85.3596C303.43 80.5037 303.292 76.0763 303.016 72.0773C302.808 68.0783 302.566 65.0791 302.29 63.0796L291.193 60.616V55.046L314.216 48.8333L316.601 51.1898C316.255 54.6889 316.013 58.1523 315.875 61.58C315.737 65.0077 315.667 69.0067 315.667 73.5769V95.3213C315.667 100.677 315.737 105.104 315.875 108.604C316.013 112.031 316.22 114.174 316.497 115.031L327.593 117.387L327.178 123.6H292.023ZM309.756 29.017C306.991 29.017 304.64 28.0887 302.704 26.232C300.769 24.3039 299.801 21.9474 299.801 19.1624C299.801 16.3774 300.769 14.0209 302.704 12.0928C304.64 10.1647 306.991 9.20068 309.756 9.20068C312.453 9.20068 314.734 10.1647 316.601 12.0928C318.467 14.0209 319.401 16.3774 319.401 19.1624C319.401 21.9474 318.467 24.3039 316.601 26.232C314.734 28.0887 312.453 29.017 309.756 29.017Z" fill="#FAF9F5"/>
<path d="M251.637 123.599L251.229 117.367L261.935 115.002C262.139 113.212 262.309 109.809 262.445 104.794C262.581 99.7795 262.649 92.3292 262.649 82.4432V60.9519C262.649 55.1493 262.615 49.1675 262.547 43.0067C262.479 36.7742 262.377 31.3297 262.241 26.6733C262.173 22.0169 262.105 19.1155 262.037 17.9693L249.904 16.25L249.598 10.8772L272.437 4L275.496 6.36404C275.36 11.307 275.224 16.1784 275.088 20.9781C274.952 25.7778 274.85 31.1148 274.782 36.9891C274.782 42.8634 274.782 49.9197 274.782 58.158L274.578 86.0967C274.578 92.9023 274.646 99.0273 274.782 104.472C274.986 109.845 275.19 113.355 275.394 115.002L285.998 117.367L285.692 123.599H251.637Z" fill="#FAF9F5"/>
<path d="M224.487 123.6C220.731 123.6 216.974 123.158 213.217 122.273C209.46 121.388 206.245 120.163 203.571 118.597L202.807 101.24H210.161L213.217 113.084C216.528 115.67 220.635 116.963 225.538 116.963C228.976 116.963 231.81 116.045 234.038 114.207C236.267 112.369 237.381 109.918 237.381 106.855C237.381 103.86 236.362 101.342 234.325 99.2997C232.351 97.1895 228.562 94.8071 222.959 92.1525C215.764 88.8171 210.702 85.6179 207.773 82.5548C204.844 79.4236 203.38 75.4076 203.38 70.5066C203.38 64.7889 205.704 60.0921 210.352 56.4164C215.064 52.6727 221.208 50.8008 228.785 50.8008C231.587 50.8008 234.452 51.0731 237.381 51.6176C240.31 52.0941 242.793 52.7748 244.831 53.6597L246.455 70.5066H239.387L235.758 59.3774C233.465 57.948 230.696 57.2333 227.448 57.2333C223.755 57.2333 220.826 58.1862 218.661 60.0921C216.56 61.93 215.509 64.2784 215.509 67.1372C215.509 70.4045 216.656 73.0933 218.948 75.2034C221.24 77.2454 225.379 79.7299 231.364 82.6569C238.113 86.0603 242.825 89.3276 245.5 92.4588C248.238 95.5219 249.607 99.2997 249.607 103.792C249.607 109.646 247.219 114.411 242.443 118.087C237.668 121.762 231.682 123.6 224.487 123.6Z" fill="#FAF9F5"/>
<path d="M195.881 110.753L206.299 113.506L207.995 118.489L185.464 123.6L183.217 121.663L183.421 111.467L182.91 111.263C179.642 115.749 176.373 118.842 173.105 120.541C169.837 122.241 166.262 123.09 162.381 123.09C155.095 123.09 148.967 120.881 143.996 116.463C139.094 112.045 136.643 105.349 136.643 96.3769V82.1025C136.643 79.0437 136.575 76.0529 136.438 73.13C136.302 70.1392 136.132 67.2163 135.928 64.3615L124.795 62.0164V56.7145L146.55 50.8008L149.205 53.3498C148.797 60.1471 148.593 67.6582 148.593 75.8829V94.2357C148.593 101.169 150.159 106.063 153.291 108.918C156.491 111.773 160.611 113.2 165.649 113.2C168.645 113.2 171.675 112.419 174.739 110.855C177.871 109.292 180.663 106.607 183.114 102.8V83.7338C183.114 80.1992 183.012 76.6646 182.808 73.13C182.672 69.5954 182.502 66.6725 182.297 64.3615L170.347 62.0164V56.7145L192.817 50.8008L195.064 53.0439C194.928 57.7341 194.826 61.6765 194.758 64.8713C194.758 68.066 194.758 71.8045 194.758 76.0868V87.6083C194.758 93.9978 194.894 99.0278 195.166 102.698C195.439 106.369 195.677 109.054 195.881 110.753Z" fill="#FAF9F5"/>
<path d="M2.78189 24.7998H31.8847L67.9422 105.635H65.1603L100.79 24.7998H127.86L128.288 31.0661L117.909 33.1549C117.767 34.8259 117.695 37.8547 117.695 42.2411C117.767 46.5579 117.838 51.1184 117.909 55.9226L118.551 86.6276C118.765 95.1916 118.943 101.632 119.086 105.949C119.229 110.196 119.371 113.155 119.514 114.826L130 117.019L129.679 123.181H94.0491L93.6212 117.019L104.107 114.826C104.107 113.434 104.107 111.867 104.107 110.126C104.107 108.316 104.107 105.844 104.107 102.711C104.107 99.5084 104.107 95.0872 104.107 89.4475L103.679 29.7084H107.852L66.1233 123.599H60.6665L18.2962 29.3951H22.3621V86.3143C22.3621 95.7834 22.3977 102.642 22.4691 106.889C22.5404 111.066 22.6474 113.677 22.7901 114.722L34.3456 117.019L34.0246 123.181H0.534978L0 117.019L11.7695 114.722C12.0548 112.285 12.2688 103.79 12.4115 89.2386L12.9465 55.9226C13.0178 51.1184 13.0178 46.6623 12.9465 42.5544C12.8751 38.3769 12.8395 35.2785 12.8395 33.2594L2.3539 31.0661L2.78189 24.7998Z" fill="#FAF9F5"/>
<path d="M595.926 14.2177C595.926 9.51781 592.117 5.70719 587.417 5.70711C582.717 5.70711 578.906 9.51777 578.906 14.2177C578.906 18.9175 582.717 22.7272 587.417 22.7272V24.4353L586.891 24.4218C581.666 24.1568 577.477 19.9674 577.213 14.7429L577.199 14.2177C577.199 8.57471 581.774 4 587.417 4L587.942 4.01355C593.341 4.28702 597.635 8.75093 597.635 14.2177L597.621 14.7429C597.347 20.1416 592.884 24.4352 587.417 24.4353V22.7272C592.117 22.7271 595.926 18.9174 595.926 14.2177Z" fill="#FDFAF5"/>
<path d="M590.501 10.958L591.661 9.77539H589.645V10.958H590.501ZM587.948 18.6592L589.076 17.5098H587.646V9.77539H584.271L583.185 10.8301L585.739 10.8779L586.393 10.8906V18.6592H587.948Z" fill="#124076" stroke="#FDFAF5" stroke-width="1.33333"/>
</svg>
