<svg width="584" height="164" viewBox="0 0 584 164" fill="none" xmlns="http://www.w3.org/2000/svg">
<path d="M514.561 123.808C508.688 123.808 503.402 123.167 498.703 121.886C494.004 120.604 490 118.842 486.689 116.6C483.379 114.25 480.816 111.474 479 108.27C477.292 105.066 476.438 101.436 476.438 97.3776C476.438 96.9504 476.438 96.5233 476.438 96.0961C476.438 95.669 476.491 95.3486 476.598 95.135H498.062C498.062 95.3486 498.062 95.5622 498.062 95.7757C498.062 95.9893 498.062 96.2029 498.062 96.4165C498.169 99.0862 499.023 101.275 500.625 102.984C502.227 104.586 504.309 105.761 506.872 106.508C509.542 107.256 512.318 107.629 515.202 107.629C517.765 107.629 520.221 107.416 522.57 106.989C525.026 106.455 527.055 105.547 528.657 104.265C530.366 102.984 531.22 101.329 531.22 99.2998C531.22 96.7368 530.152 94.7613 528.016 93.373C525.987 91.9848 523.264 90.8635 519.847 90.0092C516.537 89.1549 512.906 88.1937 508.955 87.1259C505.324 86.2715 501.693 85.3105 498.062 84.2426C494.431 83.0679 491.121 81.5728 488.131 79.7574C485.248 77.942 482.898 75.5927 481.083 72.7094C479.267 69.7193 478.36 65.9817 478.36 61.4965C478.36 57.1182 479.321 53.3272 481.243 50.1235C483.165 46.8131 485.782 44.09 489.092 41.9542C492.509 39.8184 496.46 38.27 500.946 37.3089C505.537 36.241 510.45 35.707 515.682 35.707C520.595 35.707 525.186 36.241 529.458 37.3089C533.73 38.27 537.467 39.765 540.671 41.794C543.874 43.7162 546.384 46.1723 548.199 49.1624C550.015 52.0457 550.923 55.3028 550.923 58.9336C550.923 59.6811 550.923 60.3753 550.923 61.016C550.923 61.6567 550.869 62.0839 550.762 62.2975H529.458V61.016C529.458 59.0938 528.871 57.492 527.696 56.2105C526.521 54.8222 524.813 53.7544 522.57 53.0068C520.434 52.2593 517.818 51.8855 514.721 51.8855C512.585 51.8855 510.61 52.0457 508.794 52.3661C507.086 52.6865 505.591 53.167 504.309 53.8077C503.028 54.4485 502.013 55.2494 501.266 56.2105C500.625 57.0648 500.305 58.1327 500.305 59.4142C500.305 61.2296 501.052 62.7246 502.547 63.8993C504.149 64.9672 506.232 65.8749 508.794 66.6224C511.357 67.3699 514.187 68.1708 517.284 69.0252C521.129 70.093 525.133 71.1609 529.298 72.2288C533.569 73.1899 537.521 74.5248 541.151 76.2334C544.782 77.942 547.719 80.3982 549.961 83.6018C552.204 86.6987 553.325 90.9169 553.325 96.2563C553.325 101.382 552.311 105.707 550.282 109.231C548.36 112.755 545.637 115.585 542.112 117.721C538.588 119.857 534.477 121.405 529.778 122.366C525.08 123.327 520.007 123.808 514.561 123.808Z" fill="white"/>
<path d="M412.991 123.808C410.214 123.808 407.224 123.487 404.021 122.847C400.924 122.206 397.987 121.085 395.211 119.483C392.434 117.774 390.138 115.372 388.323 112.275C386.614 109.071 385.76 105.013 385.76 100.101C385.76 94.2273 387.041 89.3684 389.604 85.524C392.167 81.6796 395.798 78.6895 400.497 76.5538C405.302 74.3112 411.015 72.7628 417.636 71.9085C424.257 71.0541 431.572 70.627 439.581 70.627V64.3798C439.581 61.9237 439.154 59.7879 438.3 57.9725C437.552 56.1571 436.164 54.7154 434.135 53.6476C432.213 52.5797 429.49 52.0457 425.966 52.0457C422.442 52.0457 419.558 52.4729 417.316 53.3272C415.18 54.1815 413.632 55.3028 412.67 56.691C411.816 57.9725 411.389 59.4142 411.389 61.016V62.9382H389.764C389.658 62.4042 389.604 61.9237 389.604 61.4965C389.604 60.9626 389.604 60.3219 389.604 59.5743C389.604 54.6621 391.099 50.4439 394.089 46.9199C397.079 43.289 401.298 40.5125 406.744 38.5903C412.19 36.6681 418.544 35.707 425.805 35.707C433.601 35.707 440.115 36.7215 445.348 38.7505C450.687 40.7795 454.745 43.7696 457.522 47.7208C460.405 51.672 461.847 56.6376 461.847 62.6178V100.902C461.847 102.824 462.381 104.265 463.448 105.227C464.623 106.081 465.905 106.508 467.293 106.508H472.579V121.085C471.511 121.619 469.856 122.153 467.613 122.687C465.371 123.327 462.648 123.648 459.444 123.648C456.347 123.648 453.571 123.167 451.114 122.206C448.765 121.352 446.789 120.124 445.188 118.522C443.586 116.813 442.465 114.784 441.824 112.435H440.703C438.887 114.677 436.645 116.653 433.975 118.362C431.412 120.07 428.368 121.405 424.844 122.366C421.427 123.327 417.476 123.808 412.991 123.808ZM420.519 106.989C423.51 106.989 426.179 106.561 428.529 105.707C430.878 104.746 432.854 103.518 434.455 102.023C436.057 100.421 437.285 98.4989 438.14 96.2563C439.101 94.0137 439.581 91.611 439.581 89.0481V84.4027C433.601 84.4027 428.262 84.8299 423.563 85.6842C418.864 86.4317 415.127 87.7666 412.35 89.6888C409.68 91.611 408.346 94.2807 408.346 97.6979C408.346 99.6201 408.826 101.275 409.787 102.664C410.748 104.052 412.137 105.12 413.952 105.867C415.767 106.615 417.957 106.989 420.519 106.989Z" fill="white"/>
<path d="M310.404 152C306.666 152 303.142 151.199 299.832 149.597C296.521 148.102 293.852 145.86 291.823 142.87C289.794 139.879 288.779 136.302 288.779 132.137C288.779 127.439 290.114 123.701 292.784 120.924C295.56 118.041 298.657 115.905 302.074 114.517C299.618 113.129 297.589 111.313 295.988 109.071C294.492 106.828 293.745 104.212 293.745 101.222C293.745 97.0571 295.24 93.6933 298.23 91.1303C301.327 88.4606 304.851 86.752 308.802 86.0045C304.851 83.5483 301.754 80.4515 299.512 76.7139C297.376 72.8695 296.308 68.5979 296.308 63.8992C296.308 57.8122 297.803 52.6864 300.793 48.5216C303.89 44.3568 308.268 41.2066 313.928 39.0708C319.695 36.8282 326.476 35.7069 334.271 35.7069C337.368 35.7069 340.251 35.8671 342.921 36.1875C345.698 36.5079 348.207 37.0418 350.45 37.7893C354.401 35.44 357.071 32.877 358.459 30.1005C359.954 27.2172 360.755 24.9213 360.862 23.2126H381.525C381.525 27.1638 380.778 30.5811 379.283 33.4644C377.894 36.3477 375.865 38.7504 373.196 40.6726C370.526 42.488 367.322 43.8229 363.585 44.6772C366.361 47.0266 368.497 49.8565 369.992 53.1669C371.487 56.4774 372.235 60.0548 372.235 63.8992C372.235 69.8794 370.793 75.0052 367.91 79.2768C365.026 83.4416 360.915 86.6452 355.576 88.8878C350.343 91.1303 344.042 92.2516 336.674 92.2516H323.859C321.296 92.2516 319.374 92.7322 318.093 93.6933C316.811 94.5476 316.171 95.8291 316.171 97.5377C316.171 98.9259 316.704 100.154 317.772 101.222C318.947 102.183 320.816 102.664 323.379 102.664H358.459C365.507 102.664 371.113 104.853 375.278 109.231C379.55 113.503 381.685 119.002 381.685 125.73C381.685 130.856 380.35 135.394 377.681 139.346C375.011 143.297 371.327 146.394 366.628 148.636C361.929 150.879 356.537 152 350.45 152H310.404ZM319.695 137.103H349.328C351.251 137.103 352.959 136.729 354.454 135.982C355.949 135.341 357.124 134.38 357.978 133.098C358.833 131.924 359.26 130.535 359.26 128.934C359.26 126.157 358.405 124.075 356.697 122.686C354.988 121.298 352.852 120.604 350.29 120.604H319.695C317.132 120.604 314.996 121.352 313.287 122.847C311.685 124.342 310.885 126.317 310.885 128.773C310.885 131.23 311.685 133.205 313.287 134.7C314.996 136.302 317.132 137.103 319.695 137.103ZM334.271 77.8351C339.504 77.8351 343.455 76.6605 346.125 74.3111C348.901 71.855 350.29 68.3843 350.29 63.8992C350.29 59.4141 348.901 55.9968 346.125 53.6475C343.455 51.1913 339.504 49.9632 334.271 49.9632C329.145 49.9632 325.194 51.1913 322.418 53.6475C319.748 55.9968 318.413 59.4141 318.413 63.8992C318.413 66.7825 319 69.292 320.175 71.4278C321.35 73.5636 323.112 75.1654 325.461 76.2333C327.811 77.3012 330.747 77.8351 334.271 77.8351Z" fill="white"/>
<path d="M203.473 121.886V37.6292H221.894L223.656 49.1624H224.777C226.699 46.3859 228.995 43.9832 231.665 41.9542C234.441 39.9252 237.538 38.3768 240.955 37.3089C244.373 36.241 248.11 35.707 252.168 35.707C257.721 35.707 262.58 36.7215 266.745 38.7505C270.91 40.7795 274.113 43.9832 276.356 48.3615C278.705 52.7399 279.88 58.4531 279.88 65.5011V121.886H257.614V69.0252C257.614 66.3554 257.294 64.1129 256.653 62.2975C256.013 60.3753 255.052 58.8268 253.77 57.6521C252.595 56.3707 251.1 55.463 249.285 54.929C247.47 54.3951 245.441 54.1281 243.198 54.1281C239.888 54.1281 236.897 54.929 234.228 56.5309C231.558 58.1327 229.476 60.3219 227.981 63.0984C226.486 65.8749 225.738 69.0786 225.738 72.7094V121.886H203.473Z" fill="white"/>
<path d="M137.704 123.808C129.161 123.808 122.38 121.458 117.361 116.76C112.342 112.061 109.832 104.479 109.832 94.0137V37.6292H132.097V90.3294C132.097 93.106 132.418 95.4553 133.059 97.3775C133.699 99.1929 134.607 100.688 135.782 101.863C137.063 103.037 138.612 103.892 140.427 104.426C142.242 104.96 144.271 105.226 146.514 105.226C149.824 105.226 152.814 104.426 155.484 102.824C158.154 101.222 160.236 99.0327 161.731 96.2562C163.226 93.3729 163.974 90.1693 163.974 86.6452V37.6292H186.239V121.886H167.978L166.377 110.352H165.255C163.226 113.022 160.824 115.371 158.047 117.4C155.377 119.429 152.334 120.978 148.917 122.046C145.499 123.22 141.762 123.808 137.704 123.808Z" fill="white"/>
<path d="M0 121.886V12H62.7917C68.5583 12 73.7375 13.1213 78.3294 15.3639C83.0281 17.6064 86.7123 20.7567 89.382 24.8147C92.0517 28.8726 93.3866 33.6247 93.3866 39.071C93.3866 43.4493 92.5857 47.3471 90.9839 50.7644C89.382 54.1816 87.1929 57.0115 84.4164 59.2541C81.7466 61.4966 78.7032 63.1519 75.2859 64.2197V64.8605C79.3439 65.7148 82.9213 67.3166 86.0182 69.666C89.2218 72.0153 91.7314 75.0588 93.5468 78.7964C95.469 82.4273 96.4301 86.7522 96.4301 91.7713C96.4301 98.3922 94.8816 103.945 91.7848 108.43C88.7947 112.915 84.7901 116.279 79.771 118.522C74.752 120.764 69.1456 121.886 62.9519 121.886H0ZM23.8672 102.343H58.3066C62.2577 102.343 65.4614 101.222 67.9175 98.9795C70.4805 96.737 71.7619 93.2663 71.7619 88.5676C71.7619 85.7911 71.228 83.3883 70.1601 81.3594C69.0922 79.3304 67.4904 77.7819 65.3546 76.714C63.2188 75.5394 60.4957 74.952 57.1853 74.952H23.8672V102.343ZM23.8672 56.3708H55.5834C58.4667 56.3708 60.8695 55.8368 62.7917 54.7689C64.8207 53.5943 66.3157 52.0992 67.2768 50.2838C68.3447 48.3616 68.8786 46.1724 68.8786 43.7163C68.8786 39.5515 67.704 36.4013 65.3546 34.2655C63.112 32.1297 60.122 31.0618 56.3844 31.0618H23.8672V56.3708Z" fill="white"/>
<path d="M580.727 22.2177C580.727 17.5178 576.918 13.7072 572.218 13.7071C567.518 13.7071 563.707 17.5178 563.707 22.2177C563.707 26.9175 567.518 30.7272 572.218 30.7272V32.4353L571.691 32.4218C566.467 32.1568 562.278 27.9674 562.014 22.7429L562 22.2177C562 16.5747 566.575 12 572.218 12L572.743 12.0135C578.142 12.287 582.435 16.7509 582.435 22.2177L582.422 22.7429C582.148 28.1416 577.684 32.4352 572.218 32.4353V30.7272C576.917 30.7271 580.727 26.9174 580.727 22.2177Z" fill="#FDFAF5"/>
<path d="M575.302 18.9578L576.462 17.7751H574.445V18.9578H575.302ZM572.749 26.6589L573.877 25.5095H572.446V17.7751H569.072L567.985 18.8298L570.54 18.8777L571.193 18.8904V26.6589H572.749Z" fill="#124076" stroke="#FDFAF5" stroke-width="1.33333"/>
</svg>
