<svg width="500" height="164" viewBox="0 0 500 164" fill="none" xmlns="http://www.w3.org/2000/svg">
<g clip-path="url(#clip0_3_688)">
<path d="M0 140.958V37.167H20.9664V140.958H0ZM20.9664 96.7949H65.2785V79.8433H20.9664V96.7949ZM65.2785 140.958V37.167H86.2449V140.958H65.2785Z" fill="white" stroke="white" stroke-width="0.944882" stroke-linecap="round"/>
<path d="M98.0898 106.758V58.5796H118.908V103.189C118.908 109.831 120.593 114.961 123.963 118.578C127.334 122.197 131.745 124.007 137.197 124.007C140.964 124.007 144.236 123.04 147.012 121.106C149.787 119.174 151.919 116.522 153.406 113.152C154.893 109.781 155.636 105.965 155.636 101.702L158.907 106.014C158.61 114.242 157.099 121.033 154.373 126.386C151.646 131.739 148.177 135.679 143.964 138.206C143.441 138.52 142.907 138.816 142.364 139.095C138.556 141.038 134.335 142.034 130.06 141.999C123.517 141.999 117.842 140.611 113.035 137.836C108.226 135.06 104.533 131.045 101.956 125.791C99.3786 120.537 98.0898 114.193 98.0898 106.758ZM155.636 129.806V58.5796H176.751V140.958H166.788C163.418 140.958 160.717 139.942 158.685 137.909C156.652 135.877 155.636 133.176 155.636 129.806Z" fill="white" stroke="white" stroke-width="0.944882" stroke-linecap="round"/>
<path d="M208.179 140.959H187.213V58.5799H208.179V75.9776C209.468 72.3097 211.451 69.0879 214.127 66.3122C216.804 63.5365 219.926 61.3801 223.495 59.8429C227.064 58.307 230.732 57.5391 234.499 57.5391C240.744 57.5391 246.222 58.9269 250.931 61.7026C255.639 64.4783 259.282 68.468 261.859 73.6718C264.437 78.8769 265.725 85.1473 265.725 92.4831V140.959H244.908V96.3492C244.908 89.8065 243.223 84.6761 239.852 80.958C236.482 77.2412 232.07 75.3828 226.618 75.3828C222.95 75.3828 219.728 76.349 216.953 78.2814C214.177 80.2152 212.021 82.8673 210.485 86.2378C208.948 89.6083 208.179 93.4744 208.179 97.8362V140.959Z" fill="white" stroke="white" stroke-width="0.944882" stroke-linecap="round"/>
<path d="M298.536 140.958H277.421V58.5797H298.536V140.958ZM288.127 48.6169C283.964 48.6169 280.494 47.3527 277.718 44.8241C274.943 42.2969 273.555 39.1498 273.555 35.3828C273.555 31.6158 274.943 28.4436 277.718 25.8661C280.494 23.2887 283.964 22 288.127 22C292.291 22 295.76 23.2887 298.536 25.8661C301.312 28.4436 302.7 31.6158 302.7 35.3828C302.7 39.1498 301.312 42.2969 298.536 44.8241C295.76 47.3527 292.291 48.6169 288.127 48.6169Z" fill="white" stroke="white" stroke-width="0.944882" stroke-linecap="round"/>
<path d="M308.447 58.5796H330.901L351.57 121.628L372.239 58.5796H394.692L364.209 140.958H338.633L308.447 58.5796Z" fill="white" stroke="white" stroke-width="0.944882" stroke-linecap="round"/>
<path d="M435.091 142C427.16 142 420.048 140.265 413.754 136.795C407.458 133.325 402.451 128.418 398.733 122.074C395.017 115.73 393.158 108.245 393.158 99.6206C393.158 90.9961 395.042 83.5361 398.809 77.2405C402.576 70.9463 407.681 66.0889 414.125 62.6682C420.568 59.2488 427.755 57.5391 435.686 57.5391C443.616 57.5391 450.778 59.2488 457.172 62.6682C463.566 66.0889 468.647 70.9463 472.414 77.2405C476.181 83.5361 478.065 90.9961 478.065 99.6206C478.065 108.245 476.157 115.73 472.341 122.074C468.524 128.418 463.369 133.325 456.876 136.795C450.383 140.265 443.121 142 435.091 142ZM435.091 123.71C438.759 123.71 442.229 122.842 445.5 121.106C448.771 119.372 451.448 116.696 453.53 113.077C455.611 109.459 456.652 104.974 456.652 99.6206C456.652 94.2675 455.636 89.8065 453.605 86.2378C451.572 82.669 448.945 80.0169 445.724 78.2814C442.502 76.5473 439.056 75.6802 435.388 75.6802C431.721 75.6802 428.325 76.5473 425.202 78.2814C422.08 80.0169 419.527 82.669 417.545 86.2378C415.562 89.8065 414.571 94.2675 414.571 99.6206C414.571 104.974 415.512 109.459 417.396 113.077C419.279 116.696 421.783 119.372 424.906 121.106C428.028 122.842 431.423 123.71 435.091 123.71Z" fill="white" stroke="white" stroke-width="0.944882" stroke-linecap="round"/>
<path d="M496.727 32.2177C496.727 27.5178 492.918 23.7072 488.218 23.7071C483.518 23.7071 479.707 27.5178 479.707 32.2177C479.707 36.9175 483.518 40.7272 488.218 40.7272V42.4353L487.691 42.4218C482.467 42.1568 478.278 37.9674 478.014 32.7429L478 32.2177C478 26.5747 482.575 22 488.218 22L488.743 22.0135C494.142 22.287 498.435 26.7509 498.435 32.2177L498.422 32.7429C498.148 38.1416 493.684 42.4352 488.218 42.4353V40.7272C492.917 40.7271 496.727 36.9174 496.727 32.2177Z" fill="#FDFAF5"/>
<path d="M491.302 28.9578L492.462 27.7751H490.445V28.9578H491.302ZM488.749 36.6589L489.877 35.5095H488.446V27.7751H485.072L483.985 28.8298L486.54 28.8777L487.193 28.8904V36.6589H488.749Z" fill="#124076" stroke="#FDFAF5" stroke-width="1.33333"/>
</g>
<defs>
<clipPath id="clip0_3_688">
<rect width="500" height="164" fill="white"/>
</clipPath>
</defs>
</svg>
