<svg width="680" height="680" viewBox="0 0 680 680" fill="none" xmlns="http://www.w3.org/2000/svg">
<path d="M568.767 601.199C574.088 601.233 578.082 601.973 582.182 604.114C582.688 604.499 582.689 604.498 583.205 604.891C583.554 605.145 583.903 605.399 584.263 605.661C587.027 608.411 586.937 611.205 586.932 614.333C586.937 615.044 586.937 615.045 586.942 615.77C586.946 616.771 586.946 617.773 586.943 618.775C586.941 620.299 586.959 621.824 586.978 623.348C586.98 624.324 586.98 625.3 586.979 626.275C586.986 626.727 586.993 627.18 587 627.646C586.963 630.988 586.028 633.478 583.158 636.367C579.275 638.7 574.361 639.81 568.985 639.814C568.314 639.815 567.644 639.817 566.953 639.818C565.85 639.817 565.85 639.818 564.725 639.817C563.94 639.818 563.154 639.819 562.344 639.82C559.691 639.823 557.038 639.823 554.384 639.823C552.471 639.825 550.557 639.826 548.644 639.828C543.924 639.832 539.203 639.835 534.482 639.836C528.83 639.837 523.177 639.841 517.525 639.845C503.861 639.855 490.197 639.86 476.533 639.864C470.07 639.866 463.608 639.868 457.145 639.87C435.026 639.879 412.907 639.886 390.788 639.889C389.399 639.89 388.01 639.889 386.621 639.889C385.933 639.89 385.244 639.891 384.534 639.891C381.045 639.892 377.555 639.892 374.066 639.893C373.374 639.893 372.681 639.892 371.968 639.893C349.512 639.896 327.057 639.907 304.602 639.923C280.866 639.939 257.129 639.948 233.393 639.949H223.632C213.305 639.951 202.977 639.959 192.65 639.968C182.271 639.978 171.892 639.979 161.513 639.975C155.346 639.972 149.18 639.976 143.013 639.986C138.409 639.993 133.805 639.991 129.201 639.984C127.338 639.983 125.475 639.985 123.612 639.99C121.08 639.997 118.549 639.993 116.018 639.986C115.293 639.991 114.568 639.995 113.821 640C108.146 639.964 102.978 639.183 98.4312 637C98.0416 636.705 97.6518 636.409 97.2504 636.105C96.8448 635.813 96.4385 635.52 96.0207 635.219C93.2184 632.333 93.2163 629.293 93.186 626.021C93.1792 625.56 93.1726 625.099 93.1655 624.624C93.1546 623.652 93.1478 622.679 93.145 621.706C93.1361 620.23 93.0996 618.754 93.0615 617.278C93.0543 616.329 93.0478 615.379 93.0441 614.43C93.0294 613.994 93.0152 613.558 93 613.11C93.0352 609.899 94.2945 607.38 97.2504 604.715C100.781 602.667 103.908 601.389 108.854 601.386C109.867 601.383 109.867 601.383 110.902 601.381C112.019 601.382 112.019 601.381 113.159 601.383C114.348 601.381 114.348 601.381 115.56 601.379C118.243 601.376 120.927 601.376 123.61 601.376C125.542 601.375 127.475 601.373 129.407 601.371C134.178 601.367 138.948 601.365 143.719 601.364C149.431 601.362 155.144 601.358 160.856 601.354C174.664 601.344 188.472 601.339 202.28 601.335C208.809 601.333 215.339 601.331 221.868 601.329C244.214 601.32 266.56 601.313 288.906 601.31C290.309 601.31 291.712 601.31 293.115 601.31C293.811 601.31 294.506 601.308 295.223 601.308C298.749 601.308 302.275 601.307 305.8 601.307C306.849 601.307 306.85 601.307 307.921 601.307C330.612 601.303 353.304 601.292 375.996 601.277C399.977 601.261 423.958 601.251 447.939 601.25H457.798C468.234 601.249 478.671 601.241 489.108 601.231C499.594 601.221 510.081 601.22 520.568 601.225C526.8 601.227 533.033 601.224 539.265 601.214C543.916 601.207 548.566 601.209 553.216 601.215C555.1 601.216 556.986 601.214 558.87 601.209C561.426 601.202 563.981 601.206 566.536 601.214C567.272 601.209 568.009 601.204 568.767 601.199ZM165.193 506.067C196.723 506.067 196.723 506.067 207.57 507.583C208.66 507.729 208.66 507.73 209.771 507.88C251.644 513.637 290.337 529.998 324.108 555.326C321.379 558.65 318.51 561.724 315.453 564.751C313.04 567.143 310.656 569.545 308.406 572.093C308.014 572.534 307.622 572.976 307.219 573.431C305.902 574.988 305.901 574.988 305.005 576.78C303.745 578.94 302.634 580.311 300.649 581.85C296.312 582.863 292.045 582.713 287.613 582.623C286.278 582.621 284.942 582.623 283.607 582.626C279.991 582.628 276.376 582.589 272.76 582.541C268.978 582.498 265.195 582.494 261.413 582.486C254.254 582.465 247.096 582.409 239.938 582.341C230.263 582.25 220.587 582.213 210.911 582.173C195.671 582.109 180.433 581.974 165.193 581.85V506.067ZM309.609 53.5475C313.761 49.0478 331.398 36.3369 337.944 41.0197C338.383 41.5843 338.379 41.887 338.345 42.6096C338.125 43.5705 337.814 43.8985 337.115 44.5815C331.44 50.4056 328.496 58.5054 328.52 66.5726C328.52 66.7236 328.519 66.8747 328.52 67.0304C328.539 72.5555 329.884 77.5213 332.511 82.3605C332.632 82.5882 332.753 82.8159 332.877 83.0505C335.402 87.623 339.223 91.3192 343.593 94.11C343.72 94.1928 343.847 94.2772 343.978 94.3626C350.488 98.5673 359.453 100.099 367.017 98.4674C367.321 98.3946 367.625 98.3204 367.928 98.2448C368.177 98.1852 368.178 98.1857 368.431 98.1248C374.107 96.7219 379.076 93.884 383.259 89.8251C383.906 89.2147 384.069 89.1212 384.957 89.0389C385.744 89.1068 385.745 89.1064 386.26 89.4462C387.201 90.8587 386.731 92.4982 386.424 94.0563C386.376 94.3033 386.326 94.5502 386.276 94.8046C384.551 103.097 380.647 110.76 374.756 116.854C374.434 117.188 374.117 117.526 373.799 117.865C368.824 123.087 362.133 127.091 355.021 129.229C358.953 133.274 362.948 137.132 367.243 140.797C368.35 141.771 368.35 141.771 369.48 142.765C388.154 158.908 409.102 171.042 430.798 182.628C447.482 191.559 462.56 201.918 476.213 215.063C476.627 215.457 477.04 215.851 477.467 216.257C483.731 222.237 489.232 228.556 494.375 235.524C494.855 236.169 495.336 236.815 495.83 237.479C508.191 254.628 517.306 274.274 519.962 295.345C520.809 302.275 520.81 302.275 525.165 307.47C526.308 308.19 527.453 308.909 528.605 309.616C531.472 311.617 533.871 314.183 536.327 316.659C536.88 317.217 537.434 317.775 538.004 318.35C558.336 339.228 570.229 367.661 570.14 396.852C570.141 397.648 570.141 398.444 570.142 399.263C570.143 401.91 570.138 404.558 570.134 407.205C570.134 409.109 570.135 411.015 570.136 412.92C570.136 417.011 570.134 421.102 570.129 425.193C570.123 431.109 570.121 437.025 570.12 442.941C570.118 452.54 570.113 462.14 570.106 471.74C570.099 481.06 570.093 490.382 570.09 499.703C570.09 500.278 570.09 500.854 570.09 501.446C570.089 504.332 570.088 507.219 570.087 510.104C570.079 534.019 570.066 557.935 570.049 581.85H535.239C535.224 576.147 535.209 570.445 535.193 564.57C535.144 546.291 535.089 528.012 535.028 509.733C535.018 506.891 535.009 504.048 534.999 501.206C534.997 500.641 534.995 500.074 534.993 499.492C534.963 490.348 534.939 481.204 534.916 472.06C534.892 462.667 534.862 453.273 534.827 443.88C534.806 438.091 534.791 432.301 534.78 426.512C534.771 422.062 534.754 417.611 534.734 413.161C534.728 411.344 534.723 409.525 534.722 407.708C534.709 395.574 534.64 383.852 530.604 372.264C530.372 371.588 530.139 370.913 529.901 370.216C523.053 351.002 509.686 336.606 491.584 327.742C488.158 325.994 488.158 325.994 486.808 324.19C486.528 322.2 486.529 322.2 486.527 319.805C486.516 318.926 486.505 318.045 486.494 317.139C486.488 316.199 486.482 315.259 486.477 314.291C485.877 287.916 475.021 265.519 457.309 246.29C455.978 244.834 454.715 243.348 453.464 241.824C450.962 238.897 448.16 236.445 445.187 234.009C444.495 233.439 443.804 232.87 443.092 232.283C433.036 224.265 421.927 218.135 410.623 212.073C402.086 207.481 393.725 202.604 385.404 197.633C384.831 197.293 384.258 196.952 383.667 196.601C373.011 190.239 362.907 182.978 353.479 174.899C353.084 174.56 352.689 174.221 352.281 173.872C350.629 172.452 348.984 171.024 347.348 169.584C346.843 169.166 346.338 168.747 345.817 168.315C345.415 167.968 345.012 167.621 344.597 167.264C342.078 166.138 339.644 166.084 336.973 166.563C334.666 167.951 334.666 167.951 332.622 170.02C331.767 170.796 330.909 171.567 330.047 172.335C329.583 172.751 329.119 173.168 328.641 173.596C309.695 190.002 287.455 202.605 265.508 214.448C253.914 220.725 243.086 227.409 233.3 236.282C232.643 236.849 231.986 237.416 231.31 238C212.314 254.552 199.087 276.545 194.706 301.455C194.511 302.324 194.511 302.324 194.312 303.211C193.923 305.392 193.842 307.438 193.817 309.652C193.79 310.895 193.789 310.896 193.762 312.164C193.729 313.9 193.705 315.638 193.691 317.374C193.67 318.202 193.649 319.03 193.628 319.883C193.616 320.636 193.604 321.391 193.593 322.167C193.083 324.737 192.181 325.596 190.165 327.221C188.251 328.209 186.353 329.126 184.395 330.016C178.907 332.64 174.767 335.739 170.49 340.104C169.919 340.633 169.346 341.161 168.758 341.705C155.271 354.399 146.682 373.683 145.374 392.144C145.317 394.231 145.302 396.314 145.307 398.401C145.302 399.191 145.298 399.982 145.294 400.796C145.281 403.42 145.279 406.043 145.277 408.667C145.27 410.557 145.261 412.448 145.253 414.338C145.237 418.394 145.226 422.452 145.218 426.509C145.207 432.374 145.187 438.241 145.166 444.107C145.132 453.626 145.105 463.146 145.081 472.665C145.058 481.907 145.031 491.149 145.001 500.392C144.998 501.247 144.999 501.248 144.996 502.12C144.987 504.982 144.977 507.845 144.968 510.707C144.889 534.421 144.822 558.136 144.761 581.85H110.708C110.656 556.872 110.615 531.893 110.591 506.915C110.588 503.961 110.586 501.006 110.583 498.052C110.583 497.464 110.582 496.875 110.582 496.269C110.572 486.769 110.554 477.268 110.533 467.767C110.511 458.006 110.499 448.244 110.495 438.482C110.492 432.468 110.482 426.453 110.463 420.438C110.45 415.812 110.448 411.186 110.451 406.56C110.45 404.673 110.445 402.785 110.437 400.897C110.377 387.393 111.266 375.058 115.674 362.176C115.935 361.407 116.196 360.638 116.465 359.847C122.416 342.973 132.314 328.568 144.761 315.854C145.305 315.28 145.85 314.705 146.41 314.114C150.303 310.075 150.304 310.073 152.76 308.716C155.731 306.96 157.874 305.404 158.914 301.976C159.512 298.994 159.912 296 160.303 292.985C164.014 264.981 180.043 239.663 199.246 219.61C199.628 219.208 200.009 218.805 200.402 218.39C215.093 202.949 232.985 191.691 251.651 181.672C274.35 169.458 295.894 155.999 314.922 138.49C316.381 137.154 317.87 135.871 319.379 134.592C321.714 132.57 323.917 130.411 326.081 128.21C320.771 126.243 315.846 123.255 311.436 119.35C311.237 119.177 311.037 119.006 310.832 118.828C309.872 117.983 308.974 117.124 308.152 116.142C307.847 115.778 307.535 115.42 307.217 115.067C299.548 106.451 295.898 94.5787 296.47 83.1452C297.111 72.7984 301.053 63.1047 307.96 55.3805C308.069 55.2578 308.177 55.1342 308.289 55.0079C308.626 54.6314 308.965 54.2572 309.305 53.8838C309.405 53.7727 309.506 53.6619 309.609 53.5475ZM514.807 581.85H327.135C332.122 576.024 337.222 570.91 343.027 565.935C343.718 565.328 344.409 564.72 345.121 564.094C393.021 522.278 452.32 506.067 514.807 506.067V581.85ZM366.238 427.014C367.234 426.515 367.926 426.555 369.03 426.663C371.033 427.714 371.467 429.541 372.171 431.556C374.966 439.557 378.672 445.916 386.546 449.796C388.248 450.562 389.909 451.054 391.715 451.479C394.427 452.16 394.428 452.159 395.359 453.16C396.021 454.513 396.168 455.234 395.903 456.72C394.729 458.63 393.487 459.233 391.367 459.865C384.293 461.998 378.965 465.719 375.291 472.317C373.83 475.059 372.726 477.836 371.881 480.827C371.376 482.519 370.807 483.549 369.38 484.681C368.008 484.902 367.247 484.832 365.999 484.221C364.779 482.801 364.37 481.202 363.796 479.438C361.311 472.063 357.782 465.833 350.687 462.073C348.578 461.051 346.452 460.36 344.173 459.818C342.465 459.382 341.516 458.798 340.413 457.42C339.969 456.455 339.938 455.673 340.065 454.624C340.918 453.049 342.042 452.098 343.743 451.566C344.332 451.413 344.925 451.267 345.518 451.128C351.99 449.387 356.778 445.559 360.315 439.853C361.916 437.072 363.029 434.19 363.993 431.133C364.518 429.506 365.021 428.268 366.238 427.014ZM281.351 380.269C282.679 379.604 283.602 379.658 285.075 379.803C287.745 381.204 288.324 383.641 289.262 386.328C292.988 396.996 297.93 405.473 308.428 410.646C310.698 411.668 312.912 412.323 315.321 412.89C318.936 413.798 318.937 413.797 320.178 415.132C321.061 416.935 321.258 417.897 320.905 419.879C319.34 422.426 317.683 423.231 314.856 424.074C305.423 426.918 298.32 431.878 293.421 440.675C291.473 444.33 290.002 448.033 288.874 452.02C288.202 454.276 287.442 455.65 285.54 457.159C283.71 457.454 282.695 457.362 281.031 456.548C279.404 454.655 278.859 452.523 278.094 450.17C274.78 440.337 270.076 432.03 260.615 427.015C257.802 425.653 254.968 424.733 251.93 424.009C249.652 423.428 248.386 422.65 246.916 420.812C246.324 419.525 246.283 418.482 246.451 417.083C247.589 414.983 249.088 413.717 251.356 413.007C252.142 412.804 252.932 412.61 253.722 412.424C262.352 410.103 268.737 404.996 273.454 397.388C275.588 393.681 277.072 389.839 278.357 385.763C279.057 383.593 279.727 381.941 281.351 380.269ZM336.65 244.885C338.973 243.722 340.587 243.817 343.164 244.071C347.837 246.522 348.851 250.784 350.493 255.487C357.015 274.157 365.661 288.993 384.034 298.046C388.007 299.835 391.881 300.98 396.096 301.971C402.423 303.56 402.424 303.56 404.596 305.895C406.14 309.051 406.488 310.734 405.869 314.204C403.131 318.66 400.231 320.067 395.283 321.542C378.776 326.518 366.346 335.2 357.772 350.595C354.363 356.991 351.787 363.471 349.814 370.45C348.637 374.397 347.308 376.801 343.979 379.443C340.777 379.958 339.002 379.797 336.09 378.373C333.243 375.059 332.287 371.328 330.949 367.21C325.15 350.003 316.917 335.466 300.361 326.691C295.439 324.307 290.479 322.694 285.162 321.428C281.176 320.411 278.962 319.05 276.39 315.835C275.353 313.583 275.28 311.757 275.575 309.31C277.567 305.634 280.189 303.417 284.157 302.175C285.534 301.82 286.915 301.48 288.299 301.155C303.401 297.092 314.573 288.158 322.828 274.843C326.562 268.356 329.161 261.633 331.411 254.5C332.636 250.702 333.808 247.812 336.65 244.885ZM339.448 285.965C338.786 286.95 338.124 287.937 337.463 288.923C332.349 296.828 326.69 303.484 318.632 308.493C317.285 309.27 315.953 310.075 314.662 310.941V312.571C324.382 317.438 332.197 325.853 337.514 335.202C338.272 336.65 339.057 338.087 339.905 339.484H341.536C346.175 329.227 354.048 321.4 363.166 315.12C365.255 313.75 365.256 313.75 366.779 312.571V310.941C365.664 310.139 364.541 309.346 363.386 308.602C356.235 304.023 350.893 298.622 346.166 291.521C344.491 288.886 342.729 286.426 340.72 284.028C340.288 284.687 339.868 285.327 339.448 285.965Z" fill="#F3F8F2"/>
</svg>
