<svg width="680" height="680" viewBox="0 0 680 680" fill="none" xmlns="http://www.w3.org/2000/svg">
<path d="M544.03 157.786C550.516 151.299 561.562 153.906 564.463 162.609L599.366 267.32C600.844 271.755 599.69 276.644 596.385 279.949L561.763 314.571C559.449 316.885 556.31 318.185 553.037 318.185H413.422C402.428 318.185 396.922 304.893 404.696 297.119L544.03 157.786Z" fill="#FDFAF5"/>
<path d="M157.786 544.03C151.299 550.516 153.906 561.562 162.609 564.463L267.32 599.366C271.755 600.844 276.644 599.69 279.949 596.385L314.571 561.763C316.885 559.449 318.185 556.31 318.185 553.037V413.422C318.185 402.428 304.893 396.922 297.119 404.696L157.786 544.03Z" fill="#FDFAF5"/>
<path d="M522.214 135.97C528.701 129.484 526.094 118.438 517.391 115.537L412.68 80.6336C408.245 79.1555 403.356 80.3096 400.051 83.6147L365.429 118.237C363.115 120.551 361.815 123.69 361.815 126.963V266.578C361.815 277.572 375.107 283.078 382.881 275.304L522.214 135.97Z" fill="#FDFAF5"/>
<path d="M135.97 522.214C129.484 528.701 118.438 526.094 115.537 517.391L80.6336 412.68C79.1555 408.245 80.3096 403.356 83.6147 400.051L118.237 365.429C120.551 363.115 123.69 361.815 126.963 361.815H266.578C277.572 361.815 283.078 375.107 275.304 382.881L135.97 522.214Z" fill="#FDFAF5"/>
<path d="M596.385 400.052C599.69 403.357 600.844 408.246 599.366 412.68L564.462 517.391C561.561 526.094 550.516 528.701 544.029 522.214L404.696 382.881C396.922 375.107 402.428 361.815 413.422 361.815H553.037C556.31 361.815 559.449 363.115 561.763 365.429L596.385 400.052Z" fill="#FDFAF5"/>
<path d="M400.052 596.385C403.357 599.69 408.246 600.844 412.68 599.366L517.391 564.462C526.094 561.561 528.701 550.516 522.214 544.029L382.881 404.696C375.107 396.922 361.815 402.428 361.815 413.422V553.037C361.815 556.31 363.115 559.449 365.429 561.763L400.052 596.385Z" fill="#FDFAF5"/>
<path d="M279.948 83.6148C276.643 80.3096 271.754 79.1555 267.32 80.6336L162.609 115.538C153.906 118.439 151.299 129.484 157.786 135.971L297.119 275.304C304.893 283.078 318.185 277.572 318.185 266.578V126.963C318.185 123.69 316.885 120.551 314.571 118.237L279.948 83.6148Z" fill="#FDFAF5"/>
<path d="M83.6148 279.948C80.3096 276.643 79.1555 271.754 80.6336 267.32L115.538 162.609C118.439 153.906 129.484 151.299 135.971 157.786L275.304 297.119C283.078 304.893 277.572 318.185 266.578 318.185H126.963C123.69 318.185 120.551 316.885 118.237 314.571L83.6148 279.948Z" fill="#FDFAF5"/>
<path d="M368 305.322C371.024 306.574 373.426 308.976 374.678 312L384.32 335.277C385.573 338.301 385.573 341.699 384.32 344.722L374.678 368C373.426 371.023 371.024 373.426 368 374.678L344.723 384.32C341.699 385.572 338.301 385.572 335.278 384.32L312 374.678C308.977 373.426 306.574 371.023 305.322 368L295.68 344.722C294.428 341.699 294.428 338.301 295.68 335.277L305.322 312C306.574 308.976 308.977 306.574 312 305.322L335.278 295.68C338.301 294.427 341.699 294.427 344.723 295.68L368 305.322Z" fill="#FDFAF5"/>
</svg>
